REM MD5 759b8f890a7bbe111ea1dcf981f4f40c
FILE "Explosive Racing (France) (Demo).bin" BINARY
  TRACK 01 MODE2/2352
    INDEX 01 00:00:00
  TRACK 02 AUDIO
    INDEX 00 15:02:25
    INDEX 01 15:04:25
  TRACK 03 AUDIO
    INDEX 00 15:14:34
    INDEX 01 15:16:34
  TRACK 04 AUDIO
    INDEX 00 16:27:18
    INDEX 01 16:29:18
  TRACK 05 AUDIO
    INDEX 00 20:01:21
    INDEX 01 20:03:21
  TRACK 06 AUDIO
    INDEX 00 23:24:45
    INDEX 01 23:26:45
  TRACK 07 AUDIO
    INDEX 00 27:50:02
    INDEX 01 27:52:02
  TRACK 08 AUDIO
    INDEX 00 31:43:51
    INDEX 01 31:45:51
  TRACK 09 AUDIO
    INDEX 00 35:15:73
    INDEX 01 35:17:73
  TRACK 10 AUDIO
    INDEX 00 40:27:61
    INDEX 01 40:29:61
  TRACK 11 AUDIO
    INDEX 00 41:12:18
    INDEX 01 41:14:18
  TRACK 12 AUDIO
    INDEX 00 41:39:62
    INDEX 01 41:41:62
  TRACK 13 AUDIO
    INDEX 00 42:05:57
    INDEX 01 42:07:57
  TRACK 14 AUDIO
    INDEX 00 42:30:43
    INDEX 01 42:32:43
  TRACK 15 AUDIO
    INDEX 00 42:54:40
    INDEX 01 42:56:40
  TRACK 16 AUDIO
    INDEX 00 43:19:61
    INDEX 01 43:21:61
  TRACK 17 AUDIO
    INDEX 00 43:44:65
    INDEX 01 43:46:65
  TRACK 18 AUDIO
    INDEX 00 44:10:10
    INDEX 01 44:12:10
  TRACK 19 AUDIO
    INDEX 00 48:20:68
    INDEX 01 48:22:68
  TRACK 20 AUDIO
    INDEX 00 49:55:70
    INDEX 01 49:57:70
  TRACK 21 AUDIO
    INDEX 00 50:10:29
    INDEX 01 50:12:29
  TRACK 22 AUDIO
    INDEX 00 50:36:01
    INDEX 01 50:38:01
  TRACK 23 AUDIO
    INDEX 00 51:01:51
    INDEX 01 51:03:51
  TRACK 24 AUDIO
    INDEX 00 51:25:36
    INDEX 01 51:27:36
  TRACK 25 AUDIO
    INDEX 00 51:50:03
    INDEX 01 51:52:03
  TRACK 26 AUDIO
    INDEX 00 52:13:17
    INDEX 01 52:15:17
  TRACK 27 AUDIO
    INDEX 00 52:36:51
    INDEX 01 52:38:51
  TRACK 28 AUDIO
    INDEX 00 53:00:14
    INDEX 01 53:02:14
  TRACK 29 AUDIO
    INDEX 00 56:58:59
    INDEX 01 57:00:59
REM LEADOUT 60:20:59
